# File produced by Open Asset Import Library (http://www.assimp.sf.net)
# (assimp v5.0.1588609223)

mtllib result.mtl

# 64 vertex positions
v  58.62709 -146.08855 -1.1070184
v  54.419922 -146.08855 -22.257874
v  62.838028 -129.01799 -25.744768
v  67.738785 -129.01799 -1.1070203
v  42.438927 -146.08855 -40.188698
v  48.881866 -129.01799 -46.631634
v  24.508101 -146.08855 -52.169693
v  27.994995 -129.01799 -60.587795
v  3.3572459 -146.08855 -56.376862
v  3.3572454 -129.01799 -65.488556
v  -17.79361 -146.08855 -52.169693
v  -21.280504 -129.01799 -60.587795
v  -35.724434 -146.08855 -40.188698
v  -42.167374 -129.01799 -46.631634
v  -47.705429 -146.08855 -22.257875
v  -56.123535 -129.01799 -25.74477
v  -51.912598 -146.08855 -1.1070267
v  -61.024292 -129.01799 -1.1070299
v  -47.705437 -146.08855 20.043821
v  -56.123543 -129.01799 23.530714
v  -35.724449 -146.08855 37.974655
v  -42.167381 -129.01799 44.417595
v  -17.793613 -146.08855 49.955658
v  -21.280506 -129.01799 58.373768
v  3.357249 -146.08855 54.162827
v  3.357249 -129.01799 63.274521
v  24.50811 -146.08855 49.955654
v  27.995005 -129.01799 58.373764
v  42.438942 -146.08855 37.974651
v  48.881882 -129.01799 44.417591
v  54.419937 -146.08855 20.04381
v  62.838043 -129.01799 23.530699
v  62.838028 130.16859 -25.744778
v  67.738785 130.16859 -1.1070284
v  48.881866 130.16859 -46.631649
v  27.994995 130.16859 -60.587811
v  3.3572454 130.16859 -65.488564
v  -21.280504 130.16859 -60.587811
v  -42.167374 130.16859 -46.631649
v  -56.123535 130.16859 -25.74478
v  -61.024292 130.16859 -1.107038
v  -56.123543 130.16859 23.530704
v  -42.167381 130.16859 44.41758
v  -21.280506 130.16859 58.373753
v  3.357249 130.16859 63.274513
v  27.995005 130.16859 58.373749
v  48.881882 130.16859 44.417576
v  62.838043 130.16859 23.530689
v  54.629929 163.09962 -22.344875
v  58.854401 163.09962 -1.1070318
v  42.599663 163.09962 -40.349445
v  24.595089 163.09962 -52.379715
v  3.3572459 163.09962 -56.604187
v  -17.880598 163.09962 -52.379715
v  -35.885162 163.09962 -40.349445
v  -47.915436 163.09962 -22.344877
v  -52.139908 163.09962 -1.1070402
v  -47.915443 163.09962 20.130798
v  -35.885178 163.09962 38.135372
v  -17.880602 163.09962 50.165649
v  3.357249 163.09962 54.390121
v  24.5951 163.09962 50.165649
v  42.599678 163.09962 38.135368
v  54.629944 163.09962 20.130785

# 0 UV coordinates

# 66 vertex normals
vn 0.88219416 -0.4708859 -1.8868162e-07
vn 0.81504118 -0.47088578 -0.33760118
vn 0.89780831 -0.23588587 -0.37188455
vn 0.97178078 -0.23588584 -1.9980848e-07
vn 0.62380552 -0.47088566 -0.62380558
vn 0.68715274 -0.23588583 -0.6871528
vn 0.33760121 -0.47088575 -0.81504118
vn 0.37188452 -0.2358858 -0.89780837
vn -4.0943092e-08 -0.47088587 -0.88219416
vn -2.9467964e-08 -0.23588586 -0.97178078
vn -0.33760118 -0.47088563 -0.81504118
vn -0.37188461 -0.23588583 -0.89780837
vn -0.62380552 -0.47088572 -0.62380552
vn -0.68715274 -0.23588581 -0.6871528
vn -0.81504112 -0.47088578 -0.33760118
vn -0.89780831 -0.23588586 -0.37188452
vn -0.88219416 -0.47088581 -8.859849e-08
vn -0.97178078 -0.23588586 -1.1781069e-07
vn -0.8150413 -0.47088572 0.33760089
vn -0.89780849 -0.23588583 0.3718842
vn -0.6238057 -0.47088569 0.62380528
vn -0.68715292 -0.23588575 0.68715256
vn -0.33760116 -0.47088584 0.81504112
vn -0.3718845 -0.23588581 0.89780831
vn 3.6393857e-08 -0.47088584 0.88219416
vn 7.6552645e-08 -0.23588581 0.97178078
vn 0.33760124 -0.47088584 0.81504101
vn 0.37188461 -0.23588583 0.89780825
vn 0.6238057 -0.47088569 0.6238054
vn 0.68715304 -0.23588577 0.68715262
vn 0.8150413 -0.47088572 0.33760089
vn 0.89780849 -0.2358858 0.37188414
vn 0.91612405 0.12929969 -0.37947106
vn 0.99160552 0.12929974 -1.8900437e-07
vn 0.70117098 0.12929966 -0.70117098
vn 0.37947097 0.12929964 -0.91612405
vn 7.4332083e-09 0.12929963 -0.99160558
vn -0.37947094 0.12929966 -0.91612405
vn -0.70117098 0.12929967 -0.7011711
vn -0.91612399 0.1292997 -0.37947118
vn -0.99160558 0.1292997 -1.7042132e-07
vn -0.91612417 0.12929969 0.37947085
vn -0.70117116 0.12929967 0.70117086
vn -0.37947139 0.1292998 0.91612399
vn 7.4332092e-09 0.1292998 0.99160552
vn 0.37947142 0.1292997 0.91612393
vn 0.70117122 0.12929969 0.70117086
vn 0.91612417 0.1292997 0.3794708
vn 0.8919878 0.26047465 -0.36947355
vn 0.96548069 0.26047471 -2.1723744e-07
vn 0.68269789 0.26047468 -0.68269795
vn 0.36947346 0.26047468 -0.89198786
vn -2.8070685e-08 0.26047453 -0.96548069
vn -0.36947352 0.26047462 -0.89198786
vn -0.68269795 0.26047465 -0.68269801
vn -0.8919878 0.26047471 -0.36947358
vn -0.96548069 0.26047471 -2.078805e-07
vn -0.89198798 0.26047471 0.36947322
vn -0.68269807 0.26047459 0.68269777
vn -0.36947358 0.26047468 0.8919878
vn -7.4855166e-08 0.26047486 0.96548063
vn 0.3694737 0.26047471 0.89198774
vn 0.68269825 0.26047459 0.68269771
vn 0.89198798 0.26047465 0.36947322
vn 0 -1 4.3711388e-08
vn 0 1 -4.3711388e-08

# Mesh 'Cylinder001' with 124 faces
g Cylinder001
usemtl DefaultMaterial
f  1//1 2//2 3//3
f  3//3 4//4 1//1
f  2//2 5//5 6//6
f  6//6 3//3 2//2
f  5//5 7//7 8//8
f  8//8 6//6 5//5
f  7//7 9//9 10//10
f  10//10 8//8 7//7
f  9//9 11//11 12//12
f  12//12 10//10 9//9
f  11//11 13//13 14//14
f  14//14 12//12 11//11
f  13//13 15//15 16//16
f  16//16 14//14 13//13
f  15//15 17//17 18//18
f  18//18 16//16 15//15
f  17//17 19//19 20//20
f  20//20 18//18 17//17
f  19//19 21//21 22//22
f  22//22 20//20 19//19
f  21//21 23//23 24//24
f  24//24 22//22 21//21
f  23//23 25//25 26//26
f  26//26 24//24 23//23
f  25//25 27//27 28//28
f  28//28 26//26 25//25
f  27//27 29//29 30//30
f  30//30 28//28 27//27
f  29//29 31//31 32//32
f  32//32 30//30 29//29
f  31//31 1//1 4//4
f  4//4 32//32 31//31
f  4//4 3//3 33//33
f  33//33 34//34 4//4
f  3//3 6//6 35//35
f  35//35 33//33 3//3
f  6//6 8//8 36//36
f  36//36 35//35 6//6
f  8//8 10//10 37//37
f  37//37 36//36 8//8
f  10//10 12//12 38//38
f  38//38 37//37 10//10
f  12//12 14//14 39//39
f  39//39 38//38 12//12
f  14//14 16//16 40//40
f  40//40 39//39 14//14
f  16//16 18//18 41//41
f  41//41 40//40 16//16
f  18//18 20//20 42//42
f  42//42 41//41 18//18
f  20//20 22//22 43//43
f  43//43 42//42 20//20
f  22//22 24//24 44//44
f  44//44 43//43 22//22
f  24//24 26//26 45//45
f  45//45 44//44 24//24
f  26//26 28//28 46//46
f  46//46 45//45 26//26
f  28//28 30//30 47//47
f  47//47 46//46 28//28
f  30//30 32//32 48//48
f  48//48 47//47 30//30
f  32//32 4//4 34//34
f  34//34 48//48 32//32
f  34//34 33//33 49//49
f  49//49 50//50 34//34
f  33//33 35//35 51//51
f  51//51 49//49 33//33
f  35//35 36//36 52//52
f  52//52 51//51 35//35
f  36//36 37//37 53//53
f  53//53 52//52 36//36
f  37//37 38//38 54//54
f  54//54 53//53 37//37
f  38//38 39//39 55//55
f  55//55 54//54 38//38
f  39//39 40//40 56//56
f  56//56 55//55 39//39
f  40//40 41//41 57//57
f  57//57 56//56 40//40
f  41//41 42//42 58//58
f  58//58 57//57 41//41
f  42//42 43//43 59//59
f  59//59 58//58 42//42
f  43//43 44//44 60//60
f  60//60 59//59 43//43
f  44//44 45//45 61//61
f  61//61 60//60 44//44
f  45//45 46//46 62//62
f  62//62 61//61 45//45
f  46//46 47//47 63//63
f  63//63 62//62 46//46
f  47//47 48//48 64//64
f  64//64 63//63 47//47
f  48//48 34//34 50//50
f  50//50 64//64 48//48
f  29//65 27//65 25//65
f  25//65 23//65 21//65
f  21//65 19//65 17//65
f  25//65 21//65 17//65
f  17//65 15//65 13//65
f  13//65 11//65 9//65
f  17//65 13//65 9//65
f  9//65 7//65 5//65
f  5//65 2//65 1//65
f  9//65 5//65 1//65
f  17//65 9//65 1//65
f  25//65 17//65 1//65
f  29//65 25//65 1//65
f  31//65 29//65 1//65
f  49//66 51//66 52//66
f  52//66 53//66 54//66
f  54//66 55//66 56//66
f  52//66 54//66 56//66
f  56//66 57//66 58//66
f  58//66 59//66 60//66
f  56//66 58//66 60//66
f  60//66 61//66 62//66
f  62//66 63//66 64//66
f  60//66 62//66 64//66
f  56//66 60//66 64//66
f  52//66 56//66 64//66
f  49//66 52//66 64//66
f  50//66 49//66 64//66

